<svg width="24" height="24" viewBox="0 0 24 24" fill="none" xmlns="http://www.w3.org/2000/svg">
<path d="M7.45105 19.222C5.46027 21.2128 2.08864 21.2048 1.14704 18.5516C0.962686 18.0321 0.815289 17.498 0.706879 16.953C0.264244 14.7276 0.491421 12.4211 1.35968 10.3249C2.22794 8.22875 3.69829 6.43713 5.58479 5.17661C7.47132 3.91609 9.68925 3.24329 11.9581 3.24329C14.227 3.24329 16.4449 3.91609 18.3314 5.17661C20.2179 6.43713 21.6882 8.22875 22.5565 10.325C23.4248 12.4211 23.6519 14.7276 23.2093 16.953C23.1009 17.498 22.9535 18.0321 22.7691 18.5516C21.8275 21.2048 18.4559 21.2128 16.4651 19.222L13.3921 16.1489C13.0985 15.8553 13.1288 15.3711 13.2098 14.9639C13.259 14.7164 13.2337 14.4598 13.1371 14.2266C13.0405 13.9934 12.877 13.794 12.6671 13.6538C12.4573 13.5136 12.2105 13.4388 11.9581 13.4388C11.7057 13.4388 11.459 13.5136 11.2491 13.6538C11.0392 13.794 10.8757 13.9934 10.7791 14.2266C10.6825 14.4598 10.6572 14.7164 10.7065 14.9639C10.7875 15.3711 10.8177 15.8553 10.5241 16.1489L7.45105 19.222Z" fill="url(#paint0_linear_5726_153454)"/>
<defs>
<linearGradient id="paint0_linear_5726_153454" x1="22.3855" y1="8.97911" x2="2.02336" y2="8.97911" gradientUnits="userSpaceOnUse">
<stop stop-color="#64C2DB"/>
<stop offset="0.510417" stop-color="#7476ED"/>
<stop offset="1" stop-color="#E56F8C"/>
</linearGradient>
</defs>
</svg>
