<svg viewBox="0 0 321 60" fill="none" xmlns="http://www.w3.org/2000/svg"><g clip-path="url(#prefix__clip0_5726_153442)"><path d="M21.614 49.589c-6.178 6.178-16.642 6.154-19.564-2.08a35.598 35.598 0 01.66-25.532 35.602 35.602 0 0166.443 25.531c-2.922 8.235-13.386 8.26-19.564 2.081l-9.537-9.537c-.911-.911-.817-2.414-.566-3.678a3.961 3.961 0 10-7.769 0c.252 1.264.346 2.767-.566 3.678l-9.537 9.537z" fill="url(#prefix__paint0_linear_5726_153442)"/><path d="M100.168 41.041h9.569v5.64H92.862V16.69h7.306V41.04zM122.792 47.023c-2.335 0-4.443-.499-6.323-1.496-1.851-.996-3.318-2.42-4.4-4.272-1.054-1.851-1.581-4.016-1.581-6.494 0-2.449.541-4.6 1.623-6.45 1.083-1.88 2.564-3.319 4.443-4.316 1.88-.996 3.988-1.495 6.323-1.495 2.336 0 4.444.499 6.323 1.495 1.88.997 3.361 2.436 4.443 4.315 1.083 1.852 1.624 4.002 1.624 6.451 0 2.45-.556 4.614-1.666 6.494a10.993 10.993 0 01-4.486 4.272c-1.88.997-3.988 1.496-6.323 1.496zm0-6.323c1.395 0 2.577-.513 3.546-1.538.997-1.026 1.495-2.492 1.495-4.4 0-1.909-.484-3.375-1.452-4.4-.94-1.026-2.108-1.539-3.504-1.539-1.424 0-2.606.513-3.546 1.538-.94.997-1.409 2.464-1.409 4.4 0 1.909.455 3.375 1.367 4.4.94 1.026 2.107 1.539 3.503 1.539zM146.918 22.5c1.68 0 3.147.342 4.4 1.026 1.282.683 2.264 1.58 2.948 2.69v-3.374h7.305v23.796c0 2.193-.441 4.173-1.324 5.938-.854 1.795-2.179 3.219-3.973 4.273-1.766 1.054-3.973 1.58-6.622 1.58-3.532 0-6.394-.84-8.587-2.52-2.193-1.652-3.446-3.902-3.76-6.75h7.22c.228.911.769 1.623 1.624 2.136.854.54 1.908.811 3.161.811 1.51 0 2.706-.441 3.589-1.324.911-.854 1.367-2.235 1.367-4.144v-3.375c-.712 1.11-1.695 2.022-2.948 2.734-1.253.684-2.72 1.026-4.4 1.026-1.965 0-3.746-.499-5.34-1.496-1.595-1.025-2.863-2.463-3.803-4.315-.911-1.88-1.367-4.044-1.367-6.493 0-2.45.456-4.6 1.367-6.451.94-1.852 2.208-3.276 3.803-4.273 1.594-.996 3.375-1.495 5.34-1.495zm7.348 12.261c0-1.822-.513-3.26-1.538-4.315-.997-1.053-2.222-1.58-3.674-1.58-1.453 0-2.692.527-3.717 1.58-.997 1.026-1.495 2.45-1.495 4.273 0 1.822.498 3.275 1.495 4.357 1.025 1.054 2.264 1.581 3.717 1.581 1.452 0 2.677-.527 3.674-1.58 1.025-1.054 1.538-2.493 1.538-4.316zM176.426 47.023c-2.335 0-4.443-.499-6.323-1.496-1.851-.996-3.318-2.42-4.4-4.272-1.054-1.851-1.581-4.016-1.581-6.494 0-2.449.541-4.6 1.624-6.45 1.082-1.88 2.563-3.319 4.443-4.316 1.88-.996 3.987-1.495 6.323-1.495 2.335 0 4.443.499 6.322 1.495 1.88.997 3.361 2.436 4.444 4.315 1.082 1.852 1.623 4.002 1.623 6.451 0 2.45-.555 4.614-1.666 6.494a10.987 10.987 0 01-4.486 4.272c-1.88.997-3.987 1.496-6.323 1.496zm0-6.323c1.396 0 2.578-.513 3.546-1.538.997-1.026 1.495-2.492 1.495-4.4 0-1.909-.484-3.375-1.452-4.4-.94-1.026-2.108-1.539-3.503-1.539-1.424 0-2.606.513-3.546 1.538-.94.997-1.41 2.464-1.41 4.4 0 1.909.456 3.375 1.367 4.4.94 1.026 2.108 1.539 3.503 1.539zM195.169 20.364c-1.282 0-2.335-.37-3.161-1.11-.798-.77-1.196-1.71-1.196-2.82 0-1.14.398-2.08 1.196-2.82.826-.77 1.879-1.154 3.161-1.154 1.253 0 2.279.385 3.076 1.154.826.74 1.239 1.68 1.239 2.82 0 1.11-.413 2.05-1.239 2.82-.797.74-1.823 1.11-3.076 1.11zm3.631 2.478V46.68h-7.305V22.84h7.305zM210.118 26.217c.712-1.11 1.694-2.008 2.948-2.691 1.254-.684 2.721-1.026 4.401-1.026 1.965 0 3.745.499 5.34 1.495 1.595.997 2.849 2.421 3.759 4.273.939 1.851 1.411 4.001 1.411 6.45 0 2.45-.472 4.615-1.411 6.494-.91 1.852-2.164 3.29-3.759 4.315-1.595.997-3.375 1.496-5.34 1.496-1.653 0-3.118-.342-4.401-1.026-1.254-.683-2.236-1.566-2.948-2.648v14.696h-7.305V22.842h7.305v3.375zm10.425 8.502c0-1.823-.513-3.247-1.539-4.273-.997-1.053-2.234-1.58-3.716-1.58-1.452 0-2.691.527-3.718 1.58-.995 1.054-1.493 2.493-1.493 4.315 0 1.823.498 3.261 1.493 4.315 1.027 1.054 2.266 1.581 3.718 1.581 1.453 0 2.692-.527 3.716-1.58 1.026-1.083 1.539-2.535 1.539-4.358zM240.226 47.023c-2.08 0-3.931-.356-5.556-1.068-1.622-.712-2.904-1.68-3.844-2.906a7.806 7.806 0 01-1.58-4.186h7.22c.085.826.47 1.495 1.153 2.008.685.512 1.525.769 2.522.769.91 0 1.607-.171 2.092-.513.513-.37.769-.84.769-1.41 0-.683-.356-1.182-1.067-1.495-.712-.342-1.867-.712-3.462-1.11-1.709-.4-3.132-.813-4.272-1.24a7.665 7.665 0 01-2.946-2.093c-.828-.969-1.24-2.265-1.24-3.888 0-1.367.371-2.606 1.111-3.717.768-1.139 1.879-2.036 3.331-2.691 1.482-.655 3.234-.983 5.255-.983 2.99 0 5.34.74 7.049 2.222 1.738 1.48 2.736 3.446 2.992 5.895h-6.751c-.114-.826-.484-1.48-1.111-1.965-.598-.484-1.394-.726-2.392-.726-.854 0-1.51.17-1.965.513-.455.313-.683.754-.683 1.324 0 .683.356 1.196 1.068 1.538.74.342 1.878.684 3.418 1.025 1.764.456 3.202.912 4.313 1.367 1.111.428 2.08 1.14 2.905 2.137.855.968 1.298 2.278 1.326 3.93 0 1.396-.399 2.649-1.197 3.76-.768 1.082-1.894 1.936-3.375 2.563-1.452.626-3.147.94-5.083.94zM276.608 22.842v23.839h-7.305v-3.247c-.741 1.054-1.753 1.908-3.033 2.563-1.254.627-2.649.94-4.188.94-1.823 0-3.432-.398-4.827-1.196-1.396-.826-2.478-2.008-3.246-3.546-.77-1.538-1.155-3.346-1.155-5.426V22.842h7.263v12.945c0 1.595.413 2.834 1.239 3.717.825.883 1.936 1.324 3.333 1.324 1.423 0 2.549-.442 3.374-1.324.826-.883 1.24-2.122 1.24-3.717V22.842h7.305zM310.992 22.586c2.961 0 5.311.897 7.049 2.691 1.765 1.794 2.649 4.287 2.649 7.476v13.928h-7.262V33.736c0-1.538-.414-2.72-1.24-3.546-.798-.854-1.907-1.282-3.333-1.282-1.423 0-2.549.428-3.374 1.282-.797.826-1.196 2.008-1.196 3.546v12.945h-7.264V33.736c0-1.538-.412-2.72-1.238-3.546-.798-.854-1.909-1.282-3.333-1.282-1.423 0-2.549.428-3.374 1.282-.799.826-1.196 2.008-1.196 3.546v12.945h-7.306V22.842h7.306v2.99c.741-.996 1.709-1.78 2.905-2.35 1.196-.597 2.549-.896 4.057-.896 1.796 0 3.391.384 4.786 1.153a8.252 8.252 0 013.333 3.29c.825-1.31 1.951-2.378 3.374-3.204a9.122 9.122 0 014.657-1.24z" fill="#3A3B7B"/></g><defs><linearGradient id="prefix__paint0_linear_5726_153442" x1="67.963" y1="17.801" x2="4.77" y2="17.801" gradientUnits="userSpaceOnUse"><stop stop-color="#64C2DB"/><stop offset=".51" stop-color="#7476ED"/><stop offset="1" stop-color="#E56F8C"/></linearGradient><clipPath id="prefix__clip0_5726_153442"><path fill="#fff" d="M0 0h320.69v60H0z"/></clipPath></defs></svg>