<svg viewBox="0 0 24 24" fill="none" xmlns="http://www.w3.org/2000/svg"><g clip-path="url(#prefix__clip0_5807_153499)"><path d="M3.757.75a.75.75 0 01.75-.75h15a.75.75 0 01.75.75c0 .807-.018 1.575-.05 2.304a4.5 4.5 0 11-1.7 8.835c-1.185 2.798-2.817 4.166-4.25 4.517v3.259l2.138.534c.29.072.565.202.805.382l2.757 2.069a.75.75 0 01-.45 1.35h-15a.75.75 0 01-.45-1.35l2.757-2.069c.24-.18.515-.31.806-.382l2.137-.534v-3.26c-1.432-.35-3.064-1.719-4.25-4.518A4.5 4.5 0 113.81 3.052 49.604 49.604 0 013.757.75zm.149 3.81a3 3 0 001.08 5.903c-.5-1.575-.882-3.52-1.08-5.903zm15.124 5.903a3 3 0 001.08-5.903c-.2 2.385-.582 4.327-1.08 5.903z" fill="#FF6E04" fill-opacity=".65"/><path d="M12.033 12.575c-.45 0-.851-.077-1.203-.231a2.061 2.061 0 01-.836-.645 1.732 1.732 0 01-.334-.964h.86c.018.225.095.419.231.583.136.16.315.286.535.375.22.088.465.133.733.133.3 0 .566-.053.798-.157a1.31 1.31 0 00.546-.437c.131-.186.197-.402.197-.647 0-.257-.063-.483-.19-.679a1.263 1.263 0 00-.56-.463c-.245-.112-.545-.168-.9-.168h-.559v-.75h.56c.277 0 .52-.05.729-.15a1.133 1.133 0 00.675-1.064 1.18 1.18 0 00-.157-.616 1.073 1.073 0 00-.443-.41 1.434 1.434 0 00-.668-.146c-.241 0-.469.044-.682.133a1.27 1.27 0 00-.518.378.986.986 0 00-.219.594H9.81c.014-.366.124-.687.33-.962.208-.277.478-.493.812-.647a2.622 2.622 0 011.108-.232c.432 0 .803.087 1.112.262.309.173.546.401.712.685.166.285.249.591.249.92 0 .394-.103.73-.31 1.007-.205.277-.483.469-.835.576v.054c.44.073.785.26 1.033.563.247.3.371.671.371 1.114 0 .38-.103.721-.31 1.023-.205.3-.484.537-.839.71-.354.172-.758.258-1.21.258z" fill="#000" fill-opacity=".4"/></g><defs><clipPath id="prefix__clip0_5807_153499"><path fill="#fff" d="M0 0h24v24H0z"/></clipPath></defs></svg>