<svg viewBox="0 0 24 24" fill="none" xmlns="http://www.w3.org/2000/svg"><g clip-path="url(#prefix__clip0_5807_153493)"><path d="M3.768.75a.75.75 0 01.75-.75h15a.75.75 0 01.75.75c0 .807-.018 1.575-.05 2.304a4.5 4.5 0 11-1.7 8.835c-1.185 2.798-2.817 4.166-4.25 4.517v3.259l2.138.534c.29.072.565.202.805.382l2.757 2.069a.75.75 0 01-.45 1.35h-15a.75.75 0 01-.45-1.35l2.757-2.069c.24-.18.515-.31.806-.382l2.137-.534v-3.26c-1.432-.35-3.064-1.719-4.25-4.518a4.5 4.5 0 11-1.697-8.835A49.604 49.604 0 013.768.75zm.149 3.81a3 3 0 001.08 5.903c-.5-1.575-.882-3.52-1.08-5.903zm15.124 5.903a3 3 0 001.08-5.903c-.2 2.385-.582 4.327-1.08 5.903z" fill="#FFAA04" fill-opacity=".65"/><path d="M12.964 5.498v6.982h-.845V6.385h-.041l-1.705 1.131v-.859l1.746-1.159h.845z" fill="#000" fill-opacity=".4"/></g><defs><clipPath id="prefix__clip0_5807_153493"><path fill="#fff" d="M0 0h24v24H0z"/></clipPath></defs></svg>