<svg viewBox="0 0 24 24" fill="none" xmlns="http://www.w3.org/2000/svg"><g clip-path="url(#prefix__clip0_5807_153496)"><path d="M3.769.75a.75.75 0 01.75-.75h15a.75.75 0 01.75.75c0 .807-.018 1.575-.051 2.304a4.5 4.5 0 11-1.7 8.835c-1.185 2.798-2.817 4.166-4.25 4.517v3.259l2.138.534c.291.072.566.202.806.382l2.757 2.069a.75.75 0 01-.45 1.35h-15a.75.75 0 01-.45-1.35l2.757-2.069c.24-.18.514-.31.805-.382l2.138-.534v-3.26c-1.433-.35-3.065-1.719-4.25-4.518a4.5 4.5 0 11-1.698-8.835A49.604 49.604 0 013.77.75zm.148 3.81a3 3 0 001.08 5.903c-.5-1.575-.882-3.52-1.08-5.903zm15.125 5.903a3 3 0 001.08-5.903c-.2 2.385-.582 4.327-1.08 5.903z" fill="#9E9E9E" fill-opacity=".65"/><path d="M9.835 12.48v-.614l2.305-2.522c.27-.296.493-.553.668-.77.175-.221.304-.428.389-.621.086-.196.129-.4.129-.614 0-.245-.06-.458-.177-.637a1.15 1.15 0 00-.477-.416 1.547 1.547 0 00-.682-.147 1.42 1.42 0 00-.703.167 1.15 1.15 0 00-.46.46 1.44 1.44 0 00-.16.696h-.805c0-.41.095-.768.283-1.077.189-.31.446-.55.77-.723.328-.173.695-.26 1.102-.26.409 0 .772.087 1.087.26.316.173.564.405.744.699.18.293.269.619.269.978 0 .257-.047.508-.14.753-.09.244-.25.515-.477.815-.225.298-.538.662-.938 1.091l-1.568 1.678v.054h3.246v.75H9.835z" fill="#000" fill-opacity=".4"/></g><defs><clipPath id="prefix__clip0_5807_153496"><path fill="#fff" d="M0 0h24v24H0z"/></clipPath></defs></svg>